{
    "asset" : {
        "generator" : "Khronos glTF Blender I/O v1.8.19",
        "version" : "2.0"
    },
    "scene" : 0,
    "scenes" : [
        {
            "name" : "Scene",
            "nodes" : [
                0
            ]
        }
    ],
    "nodes" : [
        {
            "mesh" : 0,
            "name" : "\u529e\u516c\u697c20"
        }
    ],
    "materials" : [
        {
            "doubleSided" : true,
            "name" : "Material #0.001",
            "pbrMetallicRoughness" : {
                "baseColorFactor" : [
                    0.800000011920929,
                    0.800000011920929,
                    0.800000011920929,
                    1
                ],
                "metallicFactor" : 0,
                "roughnessFactor" : 0.8228346109390259
            }
        },
        {
            "doubleSided" : true,
            "name" : "Material #31",
            "pbrMetallicRoughness" : {
                "baseColorFactor" : [
                    0.2509799897670746,
                    0.2980389893054962,
                    0.34902000427246094,
                    1
                ],
                "metallicFactor" : 0,
                "roughnessFactor" : 0.8937007784843445
            }
        },
        {
            "alphaMode" : "BLEND",
            "doubleSided" : true,
            "name" : "00\u73bb\u7483.008",
            "pbrMetallicRoughness" : {
                "baseColorFactor" : [
                    0.564706027507782,
                    0.7372549772262573,
                    0.8352940082550049,
                    0.9055117964744568
                ],
                "metallicFactor" : 0,
                "roughnessFactor" : 0.5
            }
        },
        {
            "doubleSided" : true,
            "name" : "00\u8e0f\u6b65.010",
            "pbrMetallicRoughness" : {
                "baseColorFactor" : [
                    0.800000011920929,
                    0.800000011920929,
                    0.800000011920929,
                    1
                ],
                "metallicFactor" : 0,
                "roughnessFactor" : 0.8700787425041199
            }
        },
        {
            "doubleSided" : true,
            "name" : "00dx-\u8def\u7259\u77f3",
            "pbrMetallicRoughness" : {
                "baseColorFactor" : [
                    0.800000011920929,
                    0.800000011920929,
                    0.800000011920929,
                    1
                ],
                "metallicFactor" : 0,
                "roughnessFactor" : 0.7834645509719849
            }
        },
        {
            "doubleSided" : true,
            "name" : "17 - Default",
            "pbrMetallicRoughness" : {
                "baseColorFactor" : [
                    0.9529410004615784,
                    0.9137259721755981,
                    0.800000011920929,
                    1
                ],
                "metallicFactor" : 0,
                "roughnessFactor" : 0.8149605989456177
            }
        },
        {
            "doubleSided" : true,
            "name" : "Material #1.001",
            "pbrMetallicRoughness" : {
                "baseColorFactor" : [
                    0.800000011920929,
                    0.800000011920929,
                    0.800000011920929,
                    1
                ],
                "metallicFactor" : 0,
                "roughnessFactor" : 0.7755905389785767
            }
        },
        {
            "doubleSided" : true,
            "name" : "00\u767d\u8272.004",
            "pbrMetallicRoughness" : {
                "metallicFactor" : 0,
                "roughnessFactor" : 0.8149605989456177
            }
        },
        {
            "doubleSided" : true,
            "name" : "00\u74e6.003",
            "pbrMetallicRoughness" : {
                "baseColorTexture" : {
                    "index" : 0
                },
                "metallicFactor" : 0,
                "roughnessFactor" : 0.8543307185173035
            }
        },
        {
            "doubleSided" : true,
            "name" : "00\u5c42\u677f.008",
            "pbrMetallicRoughness" : {
                "baseColorFactor" : [
                    0.800000011920929,
                    0.800000011920929,
                    0.800000011920929,
                    1
                ],
                "metallicFactor" : 0,
                "roughnessFactor" : 0.8228346109390259
            }
        }
    ],
    "meshes" : [
        {
            "name" : "Obj3d66-1207533-13205-835",
            "primitives" : [
                {
                    "attributes" : {
                        "POSITION" : 0,
                        "NORMAL" : 1,
                        "TEXCOORD_0" : 2
                    },
                    "indices" : 3,
                    "material" : 0
                },
                {
                    "attributes" : {
                        "POSITION" : 4,
                        "NORMAL" : 5,
                        "TEXCOORD_0" : 6
                    },
                    "indices" : 7,
                    "material" : 1
                },
                {
                    "attributes" : {
                        "POSITION" : 8,
                        "NORMAL" : 9,
                        "TEXCOORD_0" : 10
                    },
                    "indices" : 11,
                    "material" : 2
                },
                {
                    "attributes" : {
                        "POSITION" : 12,
                        "NORMAL" : 13,
                        "TEXCOORD_0" : 14
                    },
                    "indices" : 15,
                    "material" : 3
                },
                {
                    "attributes" : {
                        "POSITION" : 16,
                        "NORMAL" : 17,
                        "TEXCOORD_0" : 18
                    },
                    "indices" : 19,
                    "material" : 4
                },
                {
                    "attributes" : {
                        "POSITION" : 20,
                        "NORMAL" : 21,
                        "TEXCOORD_0" : 22
                    },
                    "indices" : 23,
                    "material" : 5
                },
                {
                    "attributes" : {
                        "POSITION" : 24,
                        "NORMAL" : 25,
                        "TEXCOORD_0" : 26
                    },
                    "indices" : 27,
                    "material" : 6
                },
                {
                    "attributes" : {
                        "POSITION" : 28,
                        "NORMAL" : 29,
                        "TEXCOORD_0" : 30
                    },
                    "indices" : 31,
                    "material" : 7
                },
                {
                    "attributes" : {
                        "POSITION" : 32,
                        "NORMAL" : 33,
                        "TEXCOORD_0" : 34
                    },
                    "indices" : 35,
                    "material" : 8
                },
                {
                    "attributes" : {
                        "POSITION" : 36,
                        "NORMAL" : 37,
                        "TEXCOORD_0" : 38
                    },
                    "indices" : 39,
                    "material" : 9
                }
            ]
        }
    ],
    "textures" : [
        {
            "sampler" : 0,
            "source" : 0
        }
    ],
    "images" : [
        {
            "bufferView" : 36,
            "mimeType" : "image/jpeg",
            "name" : "Image_4"
        }
    ],
    "accessors" : [
        {
            "bufferView" : 0,
            "componentType" : 5126,
            "count" : 1306,
            "max" : [
                25.606765747070312,
                11.949958801269531,
                15.986153602600098
            ],
            "min" : [
                -25.787612915039062,
                3.814697265625e-05,
                11.765076637268066
            ],
            "type" : "VEC3"
        },
        {
            "bufferView" : 1,
            "componentType" : 5126,
            "count" : 1306,
            "type" : "VEC3"
        },
        {
            "bufferView" : 2,
            "componentType" : 5126,
            "count" : 1306,
            "type" : "VEC2"
        },
        {
            "bufferView" : 3,
            "componentType" : 5123,
            "count" : 1644,
            "type" : "SCALAR"
        },
        {
            "bufferView" : 4,
            "componentType" : 5126,
            "count" : 21954,
            "max" : [
                32.50957489013672,
                20.684322357177734,
                14.63291072845459
            ],
            "min" : [
                -32.690433502197266,
                0.45003414154052734,
                -14.230470657348633
            ],
            "type" : "VEC3"
        },
        {
            "bufferView" : 5,
            "componentType" : 5126,
            "count" : 21954,
            "type" : "VEC3"
        },
        {
            "bufferView" : 6,
            "componentType" : 5126,
            "count" : 21954,
            "type" : "VEC2"
        },
        {
            "bufferView" : 7,
            "componentType" : 5123,
            "count" : 26364,
            "type" : "SCALAR"
        },
        {
            "bufferView" : 8,
            "componentType" : 5126,
            "count" : 1302,
            "max" : [
                32.40956497192383,
                20.61408233642578,
                14.54293441772461
            ],
            "min" : [
                -32.5904426574707,
                0.45003509521484375,
                -14.0804443359375
            ],
            "type" : "VEC3"
        },
        {
            "bufferView" : 9,
            "componentType" : 5126,
            "count" : 1302,
            "type" : "VEC3"
        },
        {
            "bufferView" : 10,
            "componentType" : 5126,
            "count" : 1302,
            "type" : "VEC2"
        },
        {
            "bufferView" : 11,
            "componentType" : 5123,
            "count" : 1584,
            "type" : "SCALAR"
        },
        {
            "bufferView" : 12,
            "componentType" : 5126,
            "count" : 306,
            "max" : [
                33.91008758544922,
                0.450042724609375,
                18.232810974121094
            ],
            "min" : [
                -34.0909309387207,
                3.24249267578125e-05,
                -12.167194366455078
            ],
            "type" : "VEC3"
        },
        {
            "bufferView" : 13,
            "componentType" : 5126,
            "count" : 306,
            "type" : "VEC3"
        },
        {
            "bufferView" : 14,
            "componentType" : 5126,
            "count" : 306,
            "type" : "VEC2"
        },
        {
            "bufferView" : 15,
            "componentType" : 5123,
            "count" : 360,
            "type" : "SCALAR"
        },
        {
            "bufferView" : 16,
            "componentType" : 5126,
            "count" : 56,
            "max" : [
                33.91282272338867,
                4.598786354064941,
                -9.289791107177734
            ],
            "min" : [
                -34.09367752075195,
                4.447996139526367,
                -11.637269973754883
            ],
            "type" : "VEC3"
        },
        {
            "bufferView" : 17,
            "componentType" : 5126,
            "count" : 56,
            "type" : "VEC3"
        },
        {
            "bufferView" : 18,
            "componentType" : 5126,
            "count" : 56,
            "type" : "VEC2"
        },
        {
            "bufferView" : 19,
            "componentType" : 5123,
            "count" : 72,
            "type" : "SCALAR"
        },
        {
            "bufferView" : 20,
            "componentType" : 5126,
            "count" : 10511,
            "max" : [
                34.02729797363281,
                20.931785583496094,
                16.13560676574707
            ],
            "min" : [
                -34.00814437866211,
                0.4500389099121094,
                -16.678831100463867
            ],
            "type" : "VEC3"
        },
        {
            "bufferView" : 21,
            "componentType" : 5126,
            "count" : 10511,
            "type" : "VEC3"
        },
        {
            "bufferView" : 22,
            "componentType" : 5126,
            "count" : 10511,
            "type" : "VEC2"
        },
        {
            "bufferView" : 23,
            "componentType" : 5123,
            "count" : 13020,
            "type" : "SCALAR"
        },
        {
            "bufferView" : 24,
            "componentType" : 5126,
            "count" : 1438,
            "max" : [
                32.60957336425781,
                15.761178970336914,
                14.732905387878418
            ],
            "min" : [
                -32.790435791015625,
                3.4332275390625e-05,
                -15.267189025878906
            ],
            "type" : "VEC3"
        },
        {
            "bufferView" : 25,
            "componentType" : 5126,
            "count" : 1438,
            "type" : "VEC3"
        },
        {
            "bufferView" : 26,
            "componentType" : 5126,
            "count" : 1438,
            "type" : "VEC2"
        },
        {
            "bufferView" : 27,
            "componentType" : 5123,
            "count" : 1764,
            "type" : "SCALAR"
        },
        {
            "bufferView" : 28,
            "componentType" : 5126,
            "count" : 418,
            "max" : [
                32.40956497192383,
                15.701361656188965,
                14.532851219177246
            ],
            "min" : [
                -32.59050369262695,
                3.4332275390625e-05,
                -15.067232131958008
            ],
            "type" : "VEC3"
        },
        {
            "bufferView" : 29,
            "componentType" : 5126,
            "count" : 418,
            "type" : "VEC3"
        },
        {
            "bufferView" : 30,
            "componentType" : 5126,
            "count" : 418,
            "type" : "VEC2"
        },
        {
            "bufferView" : 31,
            "componentType" : 5123,
            "count" : 432,
            "type" : "SCALAR"
        },
        {
            "bufferView" : 32,
            "componentType" : 5126,
            "count" : 106,
            "max" : [
                33.44384765625,
                20.531482696533203,
                15.411620140075684
            ],
            "min" : [
                -33.27481460571289,
                11.949953079223633,
                -16.029766082763672
            ],
            "type" : "VEC3"
        },
        {
            "bufferView" : 33,
            "componentType" : 5126,
            "count" : 106,
            "type" : "VEC3"
        },
        {
            "bufferView" : 34,
            "componentType" : 5126,
            "count" : 106,
            "type" : "VEC2"
        },
        {
            "bufferView" : 35,
            "componentType" : 5123,
            "count" : 108,
            "type" : "SCALAR"
        },
        {
            "bufferView" : 37,
            "componentType" : 5126,
            "count" : 100,
            "max" : [
                29.14640235900879,
                13.758234977722168,
                15.435892105102539
            ],
            "min" : [
                -29.127229690551758,
                10.650046348571777,
                -12.026395797729492
            ],
            "type" : "VEC3"
        },
        {
            "bufferView" : 38,
            "componentType" : 5126,
            "count" : 100,
            "type" : "VEC3"
        },
        {
            "bufferView" : 39,
            "componentType" : 5126,
            "count" : 100,
            "type" : "VEC2"
        },
        {
            "bufferView" : 40,
            "componentType" : 5123,
            "count" : 108,
            "type" : "SCALAR"
        }
    ],
    "bufferViews" : [
        {
            "buffer" : 0,
            "byteLength" : 15672,
            "byteOffset" : 0
        },
        {
            "buffer" : 0,
            "byteLength" : 15672,
            "byteOffset" : 15672
        },
        {
            "buffer" : 0,
            "byteLength" : 10448,
            "byteOffset" : 31344
        },
        {
            "buffer" : 0,
            "byteLength" : 3288,
            "byteOffset" : 41792
        },
        {
            "buffer" : 0,
            "byteLength" : 263448,
            "byteOffset" : 45080
        },
        {
            "buffer" : 0,
            "byteLength" : 263448,
            "byteOffset" : 308528
        },
        {
            "buffer" : 0,
            "byteLength" : 175632,
            "byteOffset" : 571976
        },
        {
            "buffer" : 0,
            "byteLength" : 52728,
            "byteOffset" : 747608
        },
        {
            "buffer" : 0,
            "byteLength" : 15624,
            "byteOffset" : 800336
        },
        {
            "buffer" : 0,
            "byteLength" : 15624,
            "byteOffset" : 815960
        },
        {
            "buffer" : 0,
            "byteLength" : 10416,
            "byteOffset" : 831584
        },
        {
            "buffer" : 0,
            "byteLength" : 3168,
            "byteOffset" : 842000
        },
        {
            "buffer" : 0,
            "byteLength" : 3672,
            "byteOffset" : 845168
        },
        {
            "buffer" : 0,
            "byteLength" : 3672,
            "byteOffset" : 848840
        },
        {
            "buffer" : 0,
            "byteLength" : 2448,
            "byteOffset" : 852512
        },
        {
            "buffer" : 0,
            "byteLength" : 720,
            "byteOffset" : 854960
        },
        {
            "buffer" : 0,
            "byteLength" : 672,
            "byteOffset" : 855680
        },
        {
            "buffer" : 0,
            "byteLength" : 672,
            "byteOffset" : 856352
        },
        {
            "buffer" : 0,
            "byteLength" : 448,
            "byteOffset" : 857024
        },
        {
            "buffer" : 0,
            "byteLength" : 144,
            "byteOffset" : 857472
        },
        {
            "buffer" : 0,
            "byteLength" : 126132,
            "byteOffset" : 857616
        },
        {
            "buffer" : 0,
            "byteLength" : 126132,
            "byteOffset" : 983748
        },
        {
            "buffer" : 0,
            "byteLength" : 84088,
            "byteOffset" : 1109880
        },
        {
            "buffer" : 0,
            "byteLength" : 26040,
            "byteOffset" : 1193968
        },
        {
            "buffer" : 0,
            "byteLength" : 17256,
            "byteOffset" : 1220008
        },
        {
            "buffer" : 0,
            "byteLength" : 17256,
            "byteOffset" : 1237264
        },
        {
            "buffer" : 0,
            "byteLength" : 11504,
            "byteOffset" : 1254520
        },
        {
            "buffer" : 0,
            "byteLength" : 3528,
            "byteOffset" : 1266024
        },
        {
            "buffer" : 0,
            "byteLength" : 5016,
            "byteOffset" : 1269552
        },
        {
            "buffer" : 0,
            "byteLength" : 5016,
            "byteOffset" : 1274568
        },
        {
            "buffer" : 0,
            "byteLength" : 3344,
            "byteOffset" : 1279584
        },
        {
            "buffer" : 0,
            "byteLength" : 864,
            "byteOffset" : 1282928
        },
        {
            "buffer" : 0,
            "byteLength" : 1272,
            "byteOffset" : 1283792
        },
        {
            "buffer" : 0,
            "byteLength" : 1272,
            "byteOffset" : 1285064
        },
        {
            "buffer" : 0,
            "byteLength" : 848,
            "byteOffset" : 1286336
        },
        {
            "buffer" : 0,
            "byteLength" : 216,
            "byteOffset" : 1287184
        },
        {
            "buffer" : 0,
            "byteLength" : 169144,
            "byteOffset" : 1287400
        },
        {
            "buffer" : 0,
            "byteLength" : 1200,
            "byteOffset" : 1456544
        },
        {
            "buffer" : 0,
            "byteLength" : 1200,
            "byteOffset" : 1457744
        },
        {
            "buffer" : 0,
            "byteLength" : 800,
            "byteOffset" : 1458944
        },
        {
            "buffer" : 0,
            "byteLength" : 216,
            "byteOffset" : 1459744
        }
    ],
    "samplers" : [
        {
            "magFilter" : 9729,
            "minFilter" : 9987
        }
    ],
    "buffers" : [
        {
            "byteLength" : 1459960,
            "uri" : "data:application/octet-stream;base64,"
        }
    ]
}
